<?xml version="1.0" encoding="UTF-8" standalone="no"?>
<svg
   xmlns:dc="http://purl.org/dc/elements/1.1/"
   xmlns:cc="http://creativecommons.org/ns#"
   xmlns:rdf="http://www.w3.org/1999/02/22-rdf-syntax-ns#"
   xmlns:svg="http://www.w3.org/2000/svg"
   xmlns="http://www.w3.org/2000/svg"
   xmlns:sodipodi="http://sodipodi.sourceforge.net/DTD/sodipodi-0.dtd"
   xmlns:inkscape="http://www.inkscape.org/namespaces/inkscape"
   height="32px"
   width="32px"
   version="1.0"
   id="svg3581"
   inkscape:version="0.91 r13725"
   sodipodi:docname="radio.svg"
   inkscape:export-filename="/home/onny/projects/owncloud-app-radio/img/radio.png"
   inkscape:export-xdpi="90"
   inkscape:export-ydpi="90">
  <metadata
     id="metadata3600">
    <rdf:RDF>
      <cc:Work
         rdf:about="">
        <dc:format>image/svg+xml</dc:format>
        <dc:type
           rdf:resource="http://purl.org/dc/dcmitype/StillImage" />
        <dc:title />
      </cc:Work>
    </rdf:RDF>
  </metadata>
  <sodipodi:namedview
     pagecolor="#ffffff"
     bordercolor="#666666"
     borderopacity="1"
     objecttolerance="10"
     gridtolerance="10"
     guidetolerance="10"
     inkscape:pageopacity="0"
     inkscape:pageshadow="2"
     inkscape:window-width="1436"
     inkscape:window-height="860"
     id="namedview3598"
     showgrid="true"
     inkscape:zoom="10.46875"
     inkscape:cx="26.831171"
     inkscape:cy="-30.011478"
     inkscape:window-x="2"
     inkscape:window-y="19"
     inkscape:window-maximized="0"
     inkscape:current-layer="svg3581">
    <inkscape:grid
       type="xygrid"
       id="grid3613" />
  </sodipodi:namedview>
  <defs
     id="defs3583">
    <linearGradient
       id="a"
       y2="47.208"
       gradientUnits="userSpaceOnUse"
       y1="-5.2547"
       gradientTransform="matrix(.21865 0 0 .26685 56.619 1.4022)"
       x2="-39.422"
       x1="-39.422">
      <stop
         offset="0"
         id="stop3586" />
      <stop
         stop-color="#363636"
         offset="1"
         id="stop3588" />
    </linearGradient>
  </defs>
  <rect
     style="color:#000000"
     fill-opacity="0"
     height="97.986"
     width="163.31"
     y="-32.993"
     x="-62.897"
     id="rect3590" />
  <path
     style="fill:#ffffff"
     d="M 3.8181385,60.028077 C 2.5159417,59.341018 1.6004704,58.349188 0.95380064,56.924816 0.08952986,55.021204 0.00241053,53.493655 -0.00685668,40.079658 -0.01839415,23.597062 0.09895337,22.938211 3.4395857,20.706419 4.3789842,20.078832 5.534071,18.702104 6.0064428,17.647018 c 0.9499641,-2.121823 1.7054999,-2.570244 4.3305492,-2.570244 1.505929,0 42.577421,-11.0880838 43.74548,-11.8099782 0.222865,-0.1377433 0.405222,-0.5398137 0.405222,-0.8935014 0,-1.1019877 1.758828,-2.29825216 3.379049,-2.29825216 2.328109,0 3.486801,1.47818896 3.135807,4.00046186 -0.315865,2.2697884 -3.264524,3.2200324 -5.384416,1.7351962 -1.01805,-0.7130624 -2.47222,-0.3486934 -21.384402,5.3582147 -18.486232,5.578376 -20.279127,6.213865 -20.146396,7.14083 0.143479,1.001904 0.492385,1.021357 22.737194,1.267548 21.857201,0.241905 22.637371,0.283691 24.002769,1.285693 3.036769,2.228535 3.160931,2.986122 3.1497,19.216672 -0.01,13.419982 -0.09616,14.94092 -0.961745,16.847611 -0.673804,1.484124 -1.540561,2.396405 -2.969435,3.125363 -1.962669,1.001274 -2.733568,1.028851 -28.165833,1.007352 C 6.6363226,61.038732 5.6658518,61.002942 3.8181385,60.028077 Z M 48.486971,53.042818 c 13.878755,-6.269347 9.675874,-26.651306 -5.500624,-26.675406 -5.546723,-0.0087 -10.35898,3.091497 -12.676572,8.166911 -1.513955,3.315464 -1.471587,8.532241 0.09367,11.546031 1.986833,3.825288 4.954174,6.43105 8.579108,7.533701 2.500247,0.760541 7.17859,0.479355 9.504325,-0.571237 z m -9.251066,-3.193972 c -1.387593,-0.63537 -1.106163,-0.688636 3.750442,-0.709813 4.795144,-0.02085 5.142149,0.0393 4.000461,0.691755 -1.583759,0.905352 -5.791702,0.915163 -7.750903,0.01805 z m -5.150579,-4.368563 c -0.33004,-0.330065 -0.600074,-0.78009 -0.600074,-1.000115 0,-0.220019 4.275485,-0.400065 9.501095,-0.400065 5.2256,0 9.501098,0.09415 9.501098,0.209115 0,0.115065 -0.136584,0.565071 -0.303566,1.000113 -0.26047,0.67884 -1.522517,0.790989 -8.90102,0.790989 -6.020197,0 -8.777387,-0.179872 -9.197555,-0.600072 z m -1.266824,-4.233822 c -0.18336,-0.183339 -0.333365,-0.745919 -0.333365,-1.250145 0,-0.859885 0.651582,-0.91677 10.501216,-0.91677 l 10.501205,0 0,1.250144 0,1.250141 -10.167842,0 c -5.59231,0 -10.317857,-0.150014 -10.501214,-0.333354 z m 0.66675,-4.950107 c 0,-0.155596 0.232936,-0.718161 0.517656,-1.250146 0.481263,-0.899251 1.127766,-0.967239 9.197557,-0.967239 8.938762,0 9.28698,0.07653 9.28698,2.041128 0,0.26273 -4.06459,0.459158 -9.501098,0.459158 -5.22561,0 -9.501095,-0.127313 -9.501095,-0.282906 z m 5.144312,-5.513558 c 2.325356,-1.260955 5.827238,-1.373765 8.107214,-0.261164 l 2.000227,0.976093 -5.750658,0.02049 c -5.40677,0.01906 -5.667303,-0.02478 -4.356783,-0.735399 z M 13.755706,45.352994 c 2.207842,-2.207856 1.09732,-5.785017 -2.040455,-6.572551 -1.550413,-0.389125 -3.5975012,0.877843 -4.2680655,2.641562 -1.4461992,3.803791 3.4098045,6.829691 6.3085205,3.930989 z M 13.8258,32.991687 c 1.439891,-1.35272 1.487504,-3.358698 0.120871,-5.096003 -1.261071,-1.603205 -3.784656,-1.778145 -5.5089426,-0.381894 -1.4530267,1.176584 -1.571459,4.055593 -0.2279213,5.540189 1.2654616,1.398322 4.0945699,1.366942 5.6159269,-0.06226 z"
     id="path3615"
     inkscape:connector-curvature="0" />
</svg>
